<svg width="24" height="24" viewBox="0 0 24 24" fill="none" xmlns="http://www.w3.org/2000/svg">
<rect width="24" height="24" rx="6" fill="url(#paint0_linear_1386_30)"/>
<path d="M7.46825 5.88464C9.3025 7.26639 11.2757 10.0676 12 11.5709V15.5414C12 15.4569 11.9675 15.5524 11.8975 15.7581C11.5195 16.8721 10.043 21.2199 6.66675 17.7441C4.889 15.9141 5.712 14.0841 8.948 13.5316C7.09675 13.8476 5.0155 13.3254 4.4445 11.2779C4.28 10.6889 4 7.06089 4 6.57089C4 4.11639 6.14475 4.88789 7.46825 5.88464ZM16.5317 5.88464C14.6975 7.26639 12.7243 10.0676 12 11.5709V15.5414C12 15.4569 12.0325 15.5524 12.1025 15.7581C12.4805 16.8721 13.957 21.2199 17.3333 17.7441C19.111 15.9141 18.288 14.0841 15.052 13.5316C16.9033 13.8476 18.9845 13.3254 19.5555 11.2779C19.72 10.6889 20 7.06089 20 6.57089C20 4.11639 17.8555 4.88789 16.5317 5.88464Z" fill="white"/>
<defs>
<linearGradient id="paint0_linear_1386_30" x1="12" y1="0" x2="12" y2="24" gradientUnits="userSpaceOnUse">
<stop stop-color="#007CFF"/>
<stop offset="1" stop-color="#22BCFF"/>
</linearGradient>
</defs>
</svg>
