<svg width="24" height="24" viewBox="0 0 24 24" fill="none" xmlns="http://www.w3.org/2000/svg">
<rect width="24" height="24" rx="6" fill="white"/>
<g filter="url(#filter0_ii_1386_23)">
<path fill-rule="evenodd" clip-rule="evenodd" d="M18.0278 12.791C17.9773 12.738 17.9263 12.686 17.8743 12.634H17.8738C17.6398 12.4015 17.3988 12.191 17.1544 12C17.3993 11.809 17.6403 11.599 17.8738 11.367C17.9268 11.315 17.9783 11.262 18.0288 11.209C18.5818 10.629 18.7912 9.968 18.7432 9.337C18.6952 8.7115 18.3953 8.1325 17.9588 7.699C17.5223 7.266 16.9379 6.9675 16.3064 6.92C15.7145 6.8755 15.097 7.052 14.5436 7.517C14.4841 6.8 14.1741 6.242 13.7236 5.8585C13.2432 5.4495 12.6177 5.25 11.9997 5.25C11.3818 5.25 10.7563 5.4495 10.2759 5.8585C9.82591 6.242 9.51544 6.8 9.45594 7.517C8.90248 7.052 8.28503 6.8755 7.69307 6.9205C7.06162 6.9685 6.47716 7.267 6.0407 7.7C5.60423 8.1335 5.30475 8.713 5.25676 9.338C5.20826 9.969 5.41824 10.6295 5.9717 11.209C6.0222 11.262 6.07319 11.314 6.12519 11.366H6.12569C6.35967 11.5985 6.60065 11.809 6.84514 12C6.60015 12.191 6.35917 12.401 6.12569 12.633C6.07319 12.685 6.0212 12.738 5.9707 12.791C5.41824 13.3715 5.20876 14.032 5.25676 14.663C5.30475 15.2885 5.60473 15.8675 6.0412 16.301C6.47766 16.734 7.06212 17.0325 7.69357 17.08C8.28553 17.1245 8.90298 16.948 9.45644 16.483C9.51594 17.2 9.82591 17.758 10.2764 18.1415C10.7563 18.5505 11.3823 18.75 12.0002 18.75C12.6182 18.75 13.2437 18.5505 13.7241 18.1415C14.1741 17.758 14.4846 17.2 14.5441 16.483C15.0975 16.948 15.715 17.1245 16.3069 17.0795C16.9384 17.0315 17.5228 16.733 17.9593 16.3C18.3958 15.8665 18.6952 15.2875 18.7432 14.662C18.7917 14.031 18.5818 13.3705 18.0283 12.791H18.0278Z" fill="url(#paint0_linear_1386_23)"/>
<path d="M11.9997 13.1745C11.7407 13.1745 11.4813 13.1495 11.2293 13.1005C11.0123 13.058 10.8708 12.848 10.9133 12.6315C10.9558 12.4145 11.1653 12.273 11.3823 12.3155C11.7857 12.394 12.2132 12.394 12.6167 12.3155C12.8337 12.2735 13.0436 12.4145 13.0856 12.6315C13.1276 12.8485 12.9861 13.0585 12.7697 13.1005C12.5177 13.1495 12.2582 13.1745 11.9992 13.1745H11.9997Z" fill="white"/>
<path d="M9.9639 13.1745C9.74292 13.1745 9.56393 12.9955 9.56393 12.7745V11.683C9.56393 11.462 9.74292 11.283 9.9639 11.283C10.1849 11.283 10.3639 11.462 10.3639 11.683V12.7745C10.3639 12.9955 10.1849 13.1745 9.9639 13.1745Z" fill="white"/>
<path d="M14.0357 13.1745C13.8147 13.1745 13.6357 12.9955 13.6357 12.7745V11.683C13.6357 11.462 13.8147 11.283 14.0357 11.283C14.2567 11.283 14.4357 11.462 14.4357 11.683V12.7745C14.4357 12.9955 14.2567 13.1745 14.0357 13.1745Z" fill="white"/>
</g>
<defs>
<filter id="filter0_ii_1386_23" x="5.25" y="4.25" width="13.5" height="15.5" filterUnits="userSpaceOnUse" color-interpolation-filters="sRGB">
<feFlood flood-opacity="0" result="BackgroundImageFix"/>
<feBlend mode="normal" in="SourceGraphic" in2="BackgroundImageFix" result="shape"/>
<feColorMatrix in="SourceAlpha" type="matrix" values="0 0 0 0 0 0 0 0 0 0 0 0 0 0 0 0 0 0 127 0" result="hardAlpha"/>
<feOffset dy="1"/>
<feGaussianBlur stdDeviation="0.5"/>
<feComposite in2="hardAlpha" operator="arithmetic" k2="-1" k3="1"/>
<feColorMatrix type="matrix" values="0 0 0 0 0.972549 0 0 0 0 0.458824 0 0 0 0 0.556863 0 0 0 1 0"/>
<feBlend mode="normal" in2="shape" result="effect1_innerShadow_1386_23"/>
<feColorMatrix in="SourceAlpha" type="matrix" values="0 0 0 0 0 0 0 0 0 0 0 0 0 0 0 0 0 0 127 0" result="hardAlpha"/>
<feOffset dy="-1"/>
<feGaussianBlur stdDeviation="0.5"/>
<feComposite in2="hardAlpha" operator="arithmetic" k2="-1" k3="1"/>
<feColorMatrix type="matrix" values="0 0 0 0 0.901961 0 0 0 0 0.0901961 0 0 0 0 0.32549 0 0 0 1 0"/>
<feBlend mode="normal" in2="effect1_innerShadow_1386_23" result="effect2_innerShadow_1386_23"/>
</filter>
<linearGradient id="paint0_linear_1386_23" x1="12" y1="5.25" x2="12" y2="18.75" gradientUnits="userSpaceOnUse">
<stop stop-color="#FF4B6C"/>
<stop offset="1" stop-color="#FC3E60"/>
</linearGradient>
</defs>
</svg>
