<svg width="24" height="24" viewBox="0 0 24 24" fill="none" xmlns="http://www.w3.org/2000/svg">
<rect width="24" height="24" rx="6" fill="url(#paint0_linear_1386_21)"/>
<path d="M5.3765 12.0202C8.79904 10.5384 11.0813 9.56156 12.2232 9.08958C15.4836 7.74198 16.1611 7.50789 16.6027 7.50007C16.6998 7.49846 16.9169 7.52238 17.0576 7.6358C17.1764 7.73157 17.2091 7.86094 17.2247 7.95174C17.2403 8.04254 17.2598 8.24939 17.2443 8.41102C17.0676 10.2558 16.3031 14.7325 15.9142 16.7987C15.7496 17.673 15.4256 17.9661 15.1119 17.9948C14.4301 18.0571 13.9124 17.5471 13.252 17.1169C12.2187 16.4438 11.635 16.0248 10.632 15.368C9.47284 14.609 10.2243 14.1918 10.8848 13.51C11.0577 13.3315 14.0617 10.6164 14.1198 10.3701C14.1271 10.3393 14.1338 10.2244 14.0652 10.1638C13.9965 10.1032 13.8952 10.1239 13.8221 10.1404C13.7185 10.1638 12.0678 11.248 8.86998 13.393C8.40143 13.7127 7.97703 13.8685 7.59678 13.8603C7.17759 13.8513 6.37124 13.6248 5.7718 13.4312C5.03656 13.1937 4.4522 13.0681 4.50309 12.6648C4.52959 12.4547 4.82073 12.2398 5.3765 12.0202Z" fill="white"/>
<defs>
<linearGradient id="paint0_linear_1386_21" x1="12" y1="0" x2="12" y2="24" gradientUnits="userSpaceOnUse">
<stop stop-color="#2AABEE"/>
<stop offset="1" stop-color="#229ED9"/>
</linearGradient>
</defs>
</svg>
